<svg xmlns="http://www.w3.org/2000/svg" width="924" height="757" viewBox="0 0 924 757" font-family="&#39;IBM Plex Mono&#39;,ui-monospace,&#39;SFMono-Regular&#39;,Menlo,Consolas,monospace"><defs><pattern id="grid" width="26" height="26" patternUnits="userSpaceOnUse"><path d="M26 0H0V26" fill="none" stroke="#e7e7e3" stroke-width="1"></path></pattern></defs><rect width="924" height="757" fill="#f7f7f4"></rect><rect width="924" height="757" fill="url(#grid)"></rect><line x1="36" y1="30" x2="888" y2="30" stroke="#2f3545" stroke-width="2"></line><text x="36" y="24" font-family="&#39;IBM Plex Sans&#39;,&#39;Helvetica Neue&#39;,Arial,sans-serif" font-size="10" fill="#9298a4" font-weight="500">SKILLSPEC/V0 · GRAMMAR ATLAS</text><text x="888" y="24" font-family="&#39;IBM Plex Sans&#39;,&#39;Helvetica Neue&#39;,Arial,sans-serif" font-size="10" fill="#9298a4" font-weight="500" text-anchor="end">PLATE 09</text><text x="36" y="62" font-family="&#39;IBM Plex Mono&#39;,ui-monospace,&#39;SFMono-Regular&#39;,Menlo,Consolas,monospace" font-size="24" fill="#854a72" font-weight="600">Reference Matrix</text><text x="286" y="62" font-family="&#39;IBM Plex Sans&#39;,&#39;Helvetica Neue&#39;,Arial,sans-serif" font-size="12" fill="#6a7080">Topology of every cross-reference — dense columns are hub types</text><rect x="36" y="74" width="852" height="4" rx="2" fill="#a86593"></rect><text x="36" y="104" font-family="&#39;IBM Plex Sans&#39;,&#39;Helvetica Neue&#39;,Arial,sans-serif" font-size="11.5" fill="#6a7080">A filled cell means the ROW type references the COLUMN type. Dot colour = the row (referencing) subsystem.</text><circle cx="41" cy="126" r="4.5" fill="#c0764e"></circle><text x="51" y="130" font-family="&#39;IBM Plex Sans&#39;,&#39;Helvetica Neue&#39;,Arial,sans-serif" font-size="11" fill="#5a6070">Decision</text><circle cx="130.8" cy="126" r="4.5" fill="#4e9b73"></circle><text x="140.8" y="130" font-family="&#39;IBM Plex Sans&#39;,&#39;Helvetica Neue&#39;,Arial,sans-serif" font-size="11" fill="#5a6070">Lifecycle</text><circle cx="227.2" cy="126" r="4.5" fill="#a86593"></circle><text x="237.2" y="130" font-family="&#39;IBM Plex Sans&#39;,&#39;Helvetica Neue&#39;,Arial,sans-serif" font-size="11" fill="#5a6070">Knowledge</text><circle cx="323.6" cy="126" r="4.5" fill="#9a8a3e"></circle><text x="333.6" y="130" font-family="&#39;IBM Plex Sans&#39;,&#39;Helvetica Neue&#39;,Arial,sans-serif" font-size="11" fill="#5a6070">Observability</text><text x="453.40000000000003" y="130" font-family="&#39;IBM Plex Sans&#39;,&#39;Helvetica Neue&#39;,Arial,sans-serif" font-size="11" fill="#9298a4">Bold column label = hub type; trailing number = in-degree (how many types reference it).</text><line x1="196" y1="256" x2="196" y2="715" stroke="#ececec" stroke-width="1"></line><text x="208" y="249" font-family="&#39;IBM Plex Mono&#39;,ui-monospace,&#39;SFMono-Regular&#39;,Menlo,Consolas,monospace" font-size="9.5" fill="#868d99" transform="rotate(-90 208 249)">ElicChoice</text><line x1="213" y1="256" x2="213" y2="715" stroke="#ececec" stroke-width="1"></line><text x="225" y="249" font-family="&#39;IBM Plex Mono&#39;,ui-monospace,&#39;SFMono-Regular&#39;,Menlo,Consolas,monospace" font-size="9.5" fill="#868d99" transform="rotate(-90 225 249)">ElicCondition</text><line x1="230" y1="256" x2="230" y2="715" stroke="#ececec" stroke-width="1"></line><text x="242" y="249" font-family="&#39;IBM Plex Mono&#39;,ui-monospace,&#39;SFMono-Regular&#39;,Menlo,Consolas,monospace" font-size="9.5" fill="#9c5a37" font-weight="600" transform="rotate(-90 242 249)">Elicitation  5</text><line x1="247" y1="256" x2="247" y2="715" stroke="#ececec" stroke-width="1"></line><text x="259" y="249" font-family="&#39;IBM Plex Mono&#39;,ui-monospace,&#39;SFMono-Regular&#39;,Menlo,Consolas,monospace" font-size="9.5" fill="#868d99" transform="rotate(-90 259 249)">Predicate</text><line x1="264" y1="256" x2="264" y2="715" stroke="#ececec" stroke-width="1"></line><text x="276" y="249" font-family="&#39;IBM Plex Mono&#39;,ui-monospace,&#39;SFMono-Regular&#39;,Menlo,Consolas,monospace" font-size="9.5" fill="#9c5a37" font-weight="600" transform="rotate(-90 276 249)">Route  4</text><line x1="281" y1="256" x2="281" y2="715" stroke="#ececec" stroke-width="1"></line><text x="293" y="249" font-family="&#39;IBM Plex Mono&#39;,ui-monospace,&#39;SFMono-Regular&#39;,Menlo,Consolas,monospace" font-size="9.5" fill="#868d99" transform="rotate(-90 293 249)">Rule</text><line x1="298" y1="256" x2="298" y2="715" stroke="#ececec" stroke-width="1"></line><text x="310" y="249" font-family="&#39;IBM Plex Mono&#39;,ui-monospace,&#39;SFMono-Regular&#39;,Menlo,Consolas,monospace" font-size="9.5" fill="#868d99" transform="rotate(-90 310 249)">ToolBoundary</text><line x1="315" y1="256" x2="315" y2="715" stroke="#ececec" stroke-width="1"></line><text x="327" y="249" font-family="&#39;IBM Plex Mono&#39;,ui-monospace,&#39;SFMono-Regular&#39;,Menlo,Consolas,monospace" font-size="9.5" fill="#868d99" transform="rotate(-90 327 249)">Closure</text><line x1="332" y1="256" x2="332" y2="715" stroke="#ececec" stroke-width="1"></line><text x="344" y="249" font-family="&#39;IBM Plex Mono&#39;,ui-monospace,&#39;SFMono-Regular&#39;,Menlo,Consolas,monospace" font-size="9.5" fill="#3a7a58" font-weight="600" transform="rotate(-90 344 249)">Command  5</text><line x1="349" y1="256" x2="349" y2="715" stroke="#ececec" stroke-width="1"></line><text x="361" y="249" font-family="&#39;IBM Plex Mono&#39;,ui-monospace,&#39;SFMono-Regular&#39;,Menlo,Consolas,monospace" font-size="9.5" fill="#868d99" transform="rotate(-90 361 249)">CommandRequires</text><line x1="366" y1="256" x2="366" y2="715" stroke="#ececec" stroke-width="1"></line><text x="378" y="249" font-family="&#39;IBM Plex Mono&#39;,ui-monospace,&#39;SFMono-Regular&#39;,Menlo,Consolas,monospace" font-size="9.5" fill="#3a7a58" font-weight="600" transform="rotate(-90 378 249)">SafetyClass  4</text><line x1="383" y1="256" x2="383" y2="715" stroke="#ececec" stroke-width="1"></line><text x="395" y="249" font-family="&#39;IBM Plex Mono&#39;,ui-monospace,&#39;SFMono-Regular&#39;,Menlo,Consolas,monospace" font-size="9.5" fill="#868d99" transform="rotate(-90 395 249)">Snippet</text><line x1="400" y1="256" x2="400" y2="715" stroke="#ececec" stroke-width="1"></line><text x="412" y="249" font-family="&#39;IBM Plex Mono&#39;,ui-monospace,&#39;SFMono-Regular&#39;,Menlo,Consolas,monospace" font-size="9.5" fill="#868d99" transform="rotate(-90 412 249)">State</text><line x1="417" y1="256" x2="417" y2="715" stroke="#ececec" stroke-width="1"></line><text x="429" y="249" font-family="&#39;IBM Plex Mono&#39;,ui-monospace,&#39;SFMono-Regular&#39;,Menlo,Consolas,monospace" font-size="9.5" fill="#854a72" font-weight="600" transform="rotate(-90 429 249)">Artifact  4</text><line x1="434" y1="256" x2="434" y2="715" stroke="#ececec" stroke-width="1"></line><text x="446" y="249" font-family="&#39;IBM Plex Mono&#39;,ui-monospace,&#39;SFMono-Regular&#39;,Menlo,Consolas,monospace" font-size="9.5" fill="#868d99" transform="rotate(-90 446 249)">ArtifactKind</text><line x1="451" y1="256" x2="451" y2="715" stroke="#ececec" stroke-width="1"></line><text x="463" y="249" font-family="&#39;IBM Plex Mono&#39;,ui-monospace,&#39;SFMono-Regular&#39;,Menlo,Consolas,monospace" font-size="9.5" fill="#868d99" transform="rotate(-90 463 249)">Code</text><line x1="468" y1="256" x2="468" y2="715" stroke="#ececec" stroke-width="1"></line><text x="480" y="249" font-family="&#39;IBM Plex Mono&#39;,ui-monospace,&#39;SFMono-Regular&#39;,Menlo,Consolas,monospace" font-size="9.5" fill="#868d99" transform="rotate(-90 480 249)">CodeKind</text><line x1="485" y1="256" x2="485" y2="715" stroke="#ececec" stroke-width="1"></line><text x="497" y="249" font-family="&#39;IBM Plex Mono&#39;,ui-monospace,&#39;SFMono-Regular&#39;,Menlo,Consolas,monospace" font-size="9.5" fill="#868d99" transform="rotate(-90 497 249)">CodeProvenance</text><line x1="502" y1="256" x2="502" y2="715" stroke="#ececec" stroke-width="1"></line><text x="514" y="249" font-family="&#39;IBM Plex Mono&#39;,ui-monospace,&#39;SFMono-Regular&#39;,Menlo,Consolas,monospace" font-size="9.5" fill="#868d99" transform="rotate(-90 514 249)">CodeRequires</text><line x1="519" y1="256" x2="519" y2="715" stroke="#ececec" stroke-width="1"></line><text x="531" y="249" font-family="&#39;IBM Plex Mono&#39;,ui-monospace,&#39;SFMono-Regular&#39;,Menlo,Consolas,monospace" font-size="9.5" fill="#868d99" transform="rotate(-90 531 249)">CodeSafety</text><line x1="536" y1="256" x2="536" y2="715" stroke="#ececec" stroke-width="1"></line><text x="548" y="249" font-family="&#39;IBM Plex Mono&#39;,ui-monospace,&#39;SFMono-Regular&#39;,Menlo,Consolas,monospace" font-size="9.5" fill="#868d99" transform="rotate(-90 548 249)">CodeSource</text><line x1="553" y1="256" x2="553" y2="715" stroke="#ececec" stroke-width="1"></line><text x="565" y="249" font-family="&#39;IBM Plex Mono&#39;,ui-monospace,&#39;SFMono-Regular&#39;,Menlo,Consolas,monospace" font-size="9.5" fill="#868d99" transform="rotate(-90 565 249)">DepCheck</text><line x1="570" y1="256" x2="570" y2="715" stroke="#ececec" stroke-width="1"></line><text x="582" y="249" font-family="&#39;IBM Plex Mono&#39;,ui-monospace,&#39;SFMono-Regular&#39;,Menlo,Consolas,monospace" font-size="9.5" fill="#854a72" font-weight="600" transform="rotate(-90 582 249)">Dependency  3</text><line x1="587" y1="256" x2="587" y2="715" stroke="#ececec" stroke-width="1"></line><text x="599" y="249" font-family="&#39;IBM Plex Mono&#39;,ui-monospace,&#39;SFMono-Regular&#39;,Menlo,Consolas,monospace" font-size="9.5" fill="#868d99" transform="rotate(-90 599 249)">DependencyKind</text><line x1="604" y1="256" x2="604" y2="715" stroke="#ececec" stroke-width="1"></line><text x="616" y="249" font-family="&#39;IBM Plex Mono&#39;,ui-monospace,&#39;SFMono-Regular&#39;,Menlo,Consolas,monospace" font-size="9.5" fill="#868d99" transform="rotate(-90 616 249)">DepPermission</text><line x1="621" y1="256" x2="621" y2="715" stroke="#ececec" stroke-width="1"></line><text x="633" y="249" font-family="&#39;IBM Plex Mono&#39;,ui-monospace,&#39;SFMono-Regular&#39;,Menlo,Consolas,monospace" font-size="9.5" fill="#868d99" transform="rotate(-90 633 249)">DepProvision</text><line x1="638" y1="256" x2="638" y2="715" stroke="#ececec" stroke-width="1"></line><text x="650" y="249" font-family="&#39;IBM Plex Mono&#39;,ui-monospace,&#39;SFMono-Regular&#39;,Menlo,Consolas,monospace" font-size="9.5" fill="#868d99" transform="rotate(-90 650 249)">ExecRef</text><line x1="655" y1="256" x2="655" y2="715" stroke="#ececec" stroke-width="1"></line><text x="667" y="249" font-family="&#39;IBM Plex Mono&#39;,ui-monospace,&#39;SFMono-Regular&#39;,Menlo,Consolas,monospace" font-size="9.5" fill="#854a72" font-weight="600" transform="rotate(-90 667 249)">Import  5</text><line x1="672" y1="256" x2="672" y2="715" stroke="#ececec" stroke-width="1"></line><text x="684" y="249" font-family="&#39;IBM Plex Mono&#39;,ui-monospace,&#39;SFMono-Regular&#39;,Menlo,Consolas,monospace" font-size="9.5" fill="#868d99" transform="rotate(-90 684 249)">ImportRole</text><line x1="689" y1="256" x2="689" y2="715" stroke="#ececec" stroke-width="1"></line><text x="701" y="249" font-family="&#39;IBM Plex Mono&#39;,ui-monospace,&#39;SFMono-Regular&#39;,Menlo,Consolas,monospace" font-size="9.5" fill="#868d99" transform="rotate(-90 701 249)">ImportUse</text><line x1="706" y1="256" x2="706" y2="715" stroke="#ececec" stroke-width="1"></line><text x="718" y="249" font-family="&#39;IBM Plex Mono&#39;,ui-monospace,&#39;SFMono-Regular&#39;,Menlo,Consolas,monospace" font-size="9.5" fill="#868d99" transform="rotate(-90 718 249)">ImportUseKind</text><line x1="723" y1="256" x2="723" y2="715" stroke="#ececec" stroke-width="1"></line><text x="735" y="249" font-family="&#39;IBM Plex Mono&#39;,ui-monospace,&#39;SFMono-Regular&#39;,Menlo,Consolas,monospace" font-size="9.5" fill="#868d99" transform="rotate(-90 735 249)">ProvisionOption</text><line x1="740" y1="256" x2="740" y2="715" stroke="#ececec" stroke-width="1"></line><text x="752" y="249" font-family="&#39;IBM Plex Mono&#39;,ui-monospace,&#39;SFMono-Regular&#39;,Menlo,Consolas,monospace" font-size="9.5" fill="#868d99" transform="rotate(-90 752 249)">RecipeBranch</text><line x1="757" y1="256" x2="757" y2="715" stroke="#ececec" stroke-width="1"></line><text x="769" y="249" font-family="&#39;IBM Plex Mono&#39;,ui-monospace,&#39;SFMono-Regular&#39;,Menlo,Consolas,monospace" font-size="9.5" fill="#868d99" transform="rotate(-90 769 249)">RecipeRequires</text><line x1="774" y1="256" x2="774" y2="715" stroke="#ececec" stroke-width="1"></line><text x="786" y="249" font-family="&#39;IBM Plex Mono&#39;,ui-monospace,&#39;SFMono-Regular&#39;,Menlo,Consolas,monospace" font-size="9.5" fill="#868d99" transform="rotate(-90 786 249)">RecipeStep</text><line x1="791" y1="256" x2="791" y2="715" stroke="#ececec" stroke-width="1"></line><text x="803" y="249" font-family="&#39;IBM Plex Mono&#39;,ui-monospace,&#39;SFMono-Regular&#39;,Menlo,Consolas,monospace" font-size="9.5" fill="#854a72" font-weight="600" transform="rotate(-90 803 249)">Resource  6</text><line x1="808" y1="256" x2="808" y2="715" stroke="#ececec" stroke-width="1"></line><text x="820" y="249" font-family="&#39;IBM Plex Mono&#39;,ui-monospace,&#39;SFMono-Regular&#39;,Menlo,Consolas,monospace" font-size="9.5" fill="#868d99" transform="rotate(-90 820 249)">ResourceRole</text><line x1="825" y1="256" x2="825" y2="715" stroke="#ececec" stroke-width="1"></line><text x="837" y="249" font-family="&#39;IBM Plex Mono&#39;,ui-monospace,&#39;SFMono-Regular&#39;,Menlo,Consolas,monospace" font-size="9.5" fill="#868d99" transform="rotate(-90 837 249)">ResourceUse</text><line x1="842" y1="256" x2="842" y2="715" stroke="#ececec" stroke-width="1"></line><text x="854" y="249" font-family="&#39;IBM Plex Mono&#39;,ui-monospace,&#39;SFMono-Regular&#39;,Menlo,Consolas,monospace" font-size="9.5" fill="#868d99" transform="rotate(-90 854 249)">Expectation</text><line x1="859" y1="256" x2="859" y2="715" stroke="#ececec" stroke-width="1"></line><text x="871" y="249" font-family="&#39;IBM Plex Mono&#39;,ui-monospace,&#39;SFMono-Regular&#39;,Menlo,Consolas,monospace" font-size="9.5" fill="#868d99" transform="rotate(-90 871 249)">TraceEventKind</text><line x1="876" y1="256" x2="876" y2="715" stroke="#ececec"></line><text x="186" y="268" font-family="&#39;IBM Plex Mono&#39;,ui-monospace,&#39;SFMono-Regular&#39;,Menlo,Consolas,monospace" font-size="10.5" fill="#9c5a37" text-anchor="end">ElicChoice</text><circle cx="272.5" cy="264.5" r="4.3" fill="#c0764e"></circle><circle cx="374.5" cy="264.5" r="4.3" fill="#c0764e" stroke="#3a4046" stroke-width="0.7"></circle><circle cx="408.5" cy="264.5" r="4.3" fill="#c0764e" stroke="#3a4046" stroke-width="0.7"></circle><rect x="196" y="273" width="680" height="17" fill="#00000005"></rect><text x="186" y="285" font-family="&#39;IBM Plex Mono&#39;,ui-monospace,&#39;SFMono-Regular&#39;,Menlo,Consolas,monospace" font-size="10.5" fill="#9c5a37" text-anchor="end">ElicCondition</text><circle cx="255.5" cy="281.5" r="4.3" fill="#c0764e"></circle><circle cx="272.5" cy="281.5" r="4.3" fill="#c0764e"></circle><text x="186" y="302" font-family="&#39;IBM Plex Mono&#39;,ui-monospace,&#39;SFMono-Regular&#39;,Menlo,Consolas,monospace" font-size="10.5" fill="#9c5a37" text-anchor="end">elicitation</text><circle cx="204.5" cy="298.5" r="4.3" fill="#c0764e"></circle><circle cx="221.5" cy="298.5" r="4.3" fill="#c0764e"></circle><rect x="196" y="307" width="680" height="17" fill="#00000005"></rect><text x="186" y="319" font-family="&#39;IBM Plex Mono&#39;,ui-monospace,&#39;SFMono-Regular&#39;,Menlo,Consolas,monospace" font-size="10.5" fill="#9c5a37" text-anchor="end">entry</text><circle cx="306.5" cy="315.5" r="4.3" fill="#c0764e"></circle><text x="186" y="336" font-family="&#39;IBM Plex Mono&#39;,ui-monospace,&#39;SFMono-Regular&#39;,Menlo,Consolas,monospace" font-size="10.5" fill="#9c5a37" text-anchor="end">route</text><circle cx="306.5" cy="332.5" r="4.3" fill="#c0764e"></circle><circle cx="340.5" cy="332.5" r="4.3" fill="#c0764e" stroke="#3a4046" stroke-width="0.7"></circle><rect x="196" y="341" width="680" height="17" fill="#00000005"></rect><text x="186" y="353" font-family="&#39;IBM Plex Mono&#39;,ui-monospace,&#39;SFMono-Regular&#39;,Menlo,Consolas,monospace" font-size="10.5" fill="#9c5a37" text-anchor="end">rule</text><circle cx="238.5" cy="349.5" r="4.3" fill="#c0764e"></circle><circle cx="255.5" cy="349.5" r="4.3" fill="#c0764e"></circle><circle cx="272.5" cy="349.5" r="4.3" fill="#c0764e"></circle><circle cx="323.5" cy="349.5" r="4.3" fill="#c0764e" stroke="#3a4046" stroke-width="0.7"></circle><circle cx="340.5" cy="349.5" r="4.3" fill="#c0764e" stroke="#3a4046" stroke-width="0.7"></circle><text x="186" y="370" font-family="&#39;IBM Plex Mono&#39;,ui-monospace,&#39;SFMono-Regular&#39;,Menlo,Consolas,monospace" font-size="10.5" fill="#3a7a58" text-anchor="end">command</text><circle cx="357.5" cy="366.5" r="4.3" fill="#4e9b73"></circle><circle cx="374.5" cy="366.5" r="4.3" fill="#4e9b73"></circle><rect x="196" y="375" width="680" height="17" fill="#00000005"></rect><text x="186" y="387" font-family="&#39;IBM Plex Mono&#39;,ui-monospace,&#39;SFMono-Regular&#39;,Menlo,Consolas,monospace" font-size="10.5" fill="#3a7a58" text-anchor="end">CommandRequires</text><circle cx="578.5" cy="383.5" r="4.3" fill="#4e9b73" stroke="#3a4046" stroke-width="0.7"></circle><circle cx="799.5" cy="383.5" r="4.3" fill="#4e9b73" stroke="#3a4046" stroke-width="0.7"></circle><text x="186" y="404" font-family="&#39;IBM Plex Mono&#39;,ui-monospace,&#39;SFMono-Regular&#39;,Menlo,Consolas,monospace" font-size="10.5" fill="#3a7a58" text-anchor="end">state</text><circle cx="238.5" cy="400.5" r="4.3" fill="#4e9b73" stroke="#3a4046" stroke-width="0.7"></circle><circle cx="340.5" cy="400.5" r="4.3" fill="#4e9b73"></circle><circle cx="391.5" cy="400.5" r="4.3" fill="#4e9b73"></circle><circle cx="408.5" cy="400.5" r="4.3" fill="#4e9b73"></circle><rect x="196" y="409" width="680" height="17" fill="#00000005"></rect><text x="186" y="421" font-family="&#39;IBM Plex Mono&#39;,ui-monospace,&#39;SFMono-Regular&#39;,Menlo,Consolas,monospace" font-size="10.5" fill="#854a72" text-anchor="end">artifact</text><circle cx="442.5" cy="417.5" r="4.3" fill="#a86593"></circle><circle cx="646.5" cy="417.5" r="4.3" fill="#a86593"></circle><text x="186" y="438" font-family="&#39;IBM Plex Mono&#39;,ui-monospace,&#39;SFMono-Regular&#39;,Menlo,Consolas,monospace" font-size="10.5" fill="#854a72" text-anchor="end">code</text><circle cx="425.5" cy="434.5" r="4.3" fill="#a86593"></circle><circle cx="476.5" cy="434.5" r="4.3" fill="#a86593"></circle><circle cx="493.5" cy="434.5" r="4.3" fill="#a86593"></circle><circle cx="510.5" cy="434.5" r="4.3" fill="#a86593"></circle><circle cx="527.5" cy="434.5" r="4.3" fill="#a86593"></circle><circle cx="544.5" cy="434.5" r="4.3" fill="#a86593"></circle><rect x="196" y="443" width="680" height="17" fill="#00000005"></rect><text x="186" y="455" font-family="&#39;IBM Plex Mono&#39;,ui-monospace,&#39;SFMono-Regular&#39;,Menlo,Consolas,monospace" font-size="10.5" fill="#854a72" text-anchor="end">CodeProvenance</text><circle cx="663.5" cy="451.5" r="4.3" fill="#a86593"></circle><circle cx="799.5" cy="451.5" r="4.3" fill="#a86593"></circle><text x="186" y="472" font-family="&#39;IBM Plex Mono&#39;,ui-monospace,&#39;SFMono-Regular&#39;,Menlo,Consolas,monospace" font-size="10.5" fill="#854a72" text-anchor="end">CodeRequires</text><circle cx="425.5" cy="468.5" r="4.3" fill="#a86593"></circle><circle cx="578.5" cy="468.5" r="4.3" fill="#a86593"></circle><circle cx="663.5" cy="468.5" r="4.3" fill="#a86593"></circle><circle cx="799.5" cy="468.5" r="4.3" fill="#a86593"></circle><rect x="196" y="477" width="680" height="17" fill="#00000005"></rect><text x="186" y="489" font-family="&#39;IBM Plex Mono&#39;,ui-monospace,&#39;SFMono-Regular&#39;,Menlo,Consolas,monospace" font-size="10.5" fill="#854a72" text-anchor="end">CodeSource</text><circle cx="799.5" cy="485.5" r="4.3" fill="#a86593"></circle><text x="186" y="506" font-family="&#39;IBM Plex Mono&#39;,ui-monospace,&#39;SFMono-Regular&#39;,Menlo,Consolas,monospace" font-size="10.5" fill="#854a72" text-anchor="end">dependency</text><circle cx="561.5" cy="502.5" r="4.3" fill="#a86593"></circle><circle cx="595.5" cy="502.5" r="4.3" fill="#a86593"></circle><circle cx="612.5" cy="502.5" r="4.3" fill="#a86593"></circle><circle cx="629.5" cy="502.5" r="4.3" fill="#a86593"></circle><rect x="196" y="511" width="680" height="17" fill="#00000005"></rect><text x="186" y="523" font-family="&#39;IBM Plex Mono&#39;,ui-monospace,&#39;SFMono-Regular&#39;,Menlo,Consolas,monospace" font-size="10.5" fill="#854a72" text-anchor="end">DepPermission</text><circle cx="374.5" cy="519.5" r="4.3" fill="#a86593" stroke="#3a4046" stroke-width="0.7"></circle><text x="186" y="540" font-family="&#39;IBM Plex Mono&#39;,ui-monospace,&#39;SFMono-Regular&#39;,Menlo,Consolas,monospace" font-size="10.5" fill="#854a72" text-anchor="end">DepProvision</text><circle cx="238.5" cy="536.5" r="4.3" fill="#a86593" stroke="#3a4046" stroke-width="0.7"></circle><circle cx="731.5" cy="536.5" r="4.3" fill="#a86593"></circle><rect x="196" y="545" width="680" height="17" fill="#00000005"></rect><text x="186" y="557" font-family="&#39;IBM Plex Mono&#39;,ui-monospace,&#39;SFMono-Regular&#39;,Menlo,Consolas,monospace" font-size="10.5" fill="#854a72" text-anchor="end">import</text><circle cx="663.5" cy="553.5" r="4.3" fill="#a86593"></circle><circle cx="680.5" cy="553.5" r="4.3" fill="#a86593"></circle><circle cx="697.5" cy="553.5" r="4.3" fill="#a86593"></circle><text x="186" y="574" font-family="&#39;IBM Plex Mono&#39;,ui-monospace,&#39;SFMono-Regular&#39;,Menlo,Consolas,monospace" font-size="10.5" fill="#854a72" text-anchor="end">ImportUse</text><circle cx="714.5" cy="570.5" r="4.3" fill="#a86593"></circle><rect x="196" y="579" width="680" height="17" fill="#00000005"></rect><text x="186" y="591" font-family="&#39;IBM Plex Mono&#39;,ui-monospace,&#39;SFMono-Regular&#39;,Menlo,Consolas,monospace" font-size="10.5" fill="#854a72" text-anchor="end">ProvisionOption</text><circle cx="374.5" cy="587.5" r="4.3" fill="#a86593" stroke="#3a4046" stroke-width="0.7"></circle><text x="186" y="608" font-family="&#39;IBM Plex Mono&#39;,ui-monospace,&#39;SFMono-Regular&#39;,Menlo,Consolas,monospace" font-size="10.5" fill="#854a72" text-anchor="end">recipe</text><circle cx="765.5" cy="604.5" r="4.3" fill="#a86593"></circle><circle cx="782.5" cy="604.5" r="4.3" fill="#a86593"></circle><rect x="196" y="613" width="680" height="17" fill="#00000005"></rect><text x="186" y="625" font-family="&#39;IBM Plex Mono&#39;,ui-monospace,&#39;SFMono-Regular&#39;,Menlo,Consolas,monospace" font-size="10.5" fill="#854a72" text-anchor="end">RecipeRequires</text><circle cx="425.5" cy="621.5" r="4.3" fill="#a86593"></circle><circle cx="578.5" cy="621.5" r="4.3" fill="#a86593"></circle><circle cx="663.5" cy="621.5" r="4.3" fill="#a86593"></circle><circle cx="799.5" cy="621.5" r="4.3" fill="#a86593"></circle><text x="186" y="642" font-family="&#39;IBM Plex Mono&#39;,ui-monospace,&#39;SFMono-Regular&#39;,Menlo,Consolas,monospace" font-size="10.5" fill="#854a72" text-anchor="end">RecipeStep</text><circle cx="238.5" cy="638.5" r="4.3" fill="#a86593" stroke="#3a4046" stroke-width="0.7"></circle><circle cx="340.5" cy="638.5" r="4.3" fill="#a86593" stroke="#3a4046" stroke-width="0.7"></circle><circle cx="425.5" cy="638.5" r="4.3" fill="#a86593"></circle><circle cx="459.5" cy="638.5" r="4.3" fill="#a86593"></circle><circle cx="663.5" cy="638.5" r="4.3" fill="#a86593"></circle><circle cx="748.5" cy="638.5" r="4.3" fill="#a86593"></circle><circle cx="799.5" cy="638.5" r="4.3" fill="#a86593"></circle><rect x="196" y="647" width="680" height="17" fill="#00000005"></rect><text x="186" y="659" font-family="&#39;IBM Plex Mono&#39;,ui-monospace,&#39;SFMono-Regular&#39;,Menlo,Consolas,monospace" font-size="10.5" fill="#854a72" text-anchor="end">resource</text><circle cx="816.5" cy="655.5" r="4.3" fill="#a86593"></circle><circle cx="833.5" cy="655.5" r="4.3" fill="#a86593"></circle><text x="186" y="676" font-family="&#39;IBM Plex Mono&#39;,ui-monospace,&#39;SFMono-Regular&#39;,Menlo,Consolas,monospace" font-size="10.5" fill="#6f6328" text-anchor="end">Expectation</text><circle cx="238.5" cy="672.5" r="4.3" fill="#9a8a3e" stroke="#3a4046" stroke-width="0.7"></circle><circle cx="272.5" cy="672.5" r="4.3" fill="#9a8a3e" stroke="#3a4046" stroke-width="0.7"></circle><circle cx="289.5" cy="672.5" r="4.3" fill="#9a8a3e" stroke="#3a4046" stroke-width="0.7"></circle><circle cx="323.5" cy="672.5" r="4.3" fill="#9a8a3e" stroke="#3a4046" stroke-width="0.7"></circle><circle cx="340.5" cy="672.5" r="4.3" fill="#9a8a3e" stroke="#3a4046" stroke-width="0.7"></circle><rect x="196" y="681" width="680" height="17" fill="#00000005"></rect><text x="186" y="693" font-family="&#39;IBM Plex Mono&#39;,ui-monospace,&#39;SFMono-Regular&#39;,Menlo,Consolas,monospace" font-size="10.5" fill="#6f6328" text-anchor="end">test</text><circle cx="850.5" cy="689.5" r="4.3" fill="#9a8a3e"></circle><text x="186" y="710" font-family="&#39;IBM Plex Mono&#39;,ui-monospace,&#39;SFMono-Regular&#39;,Menlo,Consolas,monospace" font-size="10.5" fill="#6f6328" text-anchor="end">trace</text><circle cx="867.5" cy="706.5" r="4.3" fill="#9a8a3e"></circle><line x1="315" y1="166" x2="315" y2="715" stroke="#bcc2cb" stroke-width="1.3"></line><line x1="417" y1="166" x2="417" y2="715" stroke="#bcc2cb" stroke-width="1.3"></line><line x1="842" y1="166" x2="842" y2="715" stroke="#bcc2cb" stroke-width="1.3"></line><line x1="46" y1="358" x2="876" y2="358" stroke="#bcc2cb" stroke-width="1.3"></line><line x1="46" y1="409" x2="876" y2="409" stroke="#bcc2cb" stroke-width="1.3"></line><line x1="46" y1="664" x2="876" y2="664" stroke="#bcc2cb" stroke-width="1.3"></line><rect x="196" y="256" width="680" height="459" fill="none" stroke="#bcc2cb"></rect></svg>