<svg xmlns="http://www.w3.org/2000/svg" viewBox="0 0 1200 820" role="img" aria-labelledby="title desc">
  <title id="title">SkillSpec makes a skill followable, testable, and provable</title>
  <desc id="desc">A chalkboard explainer showing a long skill manual being distilled into a contract, then followed by an agent through route, steps, checks, and proof.</desc>
  <defs>
    <filter id="chalk" x="-10%" y="-10%" width="120%" height="120%">
      <feTurbulence type="fractalNoise" baseFrequency="0.8" numOctaves="2" seed="8" result="noise"/>
      <feDisplacementMap in="SourceGraphic" in2="noise" scale="1.6"/>
    </filter>
    <filter id="boardDust" x="0" y="0" width="100%" height="100%">
      <feTurbulence type="fractalNoise" baseFrequency="0.012" numOctaves="4" seed="4"/>
      <feColorMatrix type="matrix" values="0 0 0 0 0.96 0 0 0 0 0.93 0 0 0 0 0.86 0 0 0 0.08 0"/>
    </filter>
    <style>
      .board { fill: #26302c; }
      .dust { opacity: 0.7; }
      .chalk { fill: none; stroke: #f2efe4; stroke-width: 8; stroke-linecap: round; stroke-linejoin: round; filter: url(#chalk); }
      .chalk-thin { fill: none; stroke: #f2efe4; stroke-width: 4.5; stroke-linecap: round; stroke-linejoin: round; filter: url(#chalk); }
      .chalk-fill { fill: #f2efe4; filter: url(#chalk); }
      .accent { fill: none; stroke: #f5a24b; stroke-width: 8; stroke-linecap: round; stroke-linejoin: round; filter: url(#chalk); }
      .accent-fill { fill: #f5a24b; filter: url(#chalk); }
      .ghost { fill: none; stroke: #f2efe4; stroke-width: 7; stroke-linecap: round; opacity: 0.12; filter: url(#chalk); }
      .label { fill: #f2efe4; font: 700 34px ui-sans-serif, system-ui, -apple-system, BlinkMacSystemFont, "Segoe UI", sans-serif; letter-spacing: 0; filter: url(#chalk); }
      .small { font-size: 24px; font-weight: 650; }
      .tiny { font-size: 19px; font-weight: 650; }
      .accent-text { fill: #f5a24b; }
    </style>
  </defs>
  <rect class="board" width="1200" height="820" rx="28"/>
  <rect class="dust" width="1200" height="820" filter="url(#boardDust)"/>
  <path class="ghost" d="M122 118c140-42 261-30 364 36"/>
  <path class="ghost" d="M802 644c78 38 170 42 278 12"/>
  <path class="chalk-thin" d="M58 64h1084M58 756h1084"/>

  <g transform="translate(86 128)">
    <path class="chalk" d="M70 44c50-20 173-19 223 0 24 9 28 28 17 52-10 22-8 365 8 401-57-17-182-17-239 0 10-38 11-374-3-404-13-28-12-42-6-49Z"/>
    <path class="chalk-thin" d="M119 108h145M118 152h152M119 196h133M119 240h160M118 284h125M119 328h151M119 372h110"/>
    <path class="accent" d="M93 430c48-19 176-19 226 0"/>
    <text class="label small" x="82" y="548">long skill</text>
    <text class="label tiny" x="82" y="582">instructions, examples,</text>
    <text class="label tiny" x="82" y="610">rules, snippets, references</text>
  </g>

  <g transform="translate(390 198)">
    <path class="accent" d="M8 142c69-6 123-6 163 0 21 3 30 15 18 29l-68 80c-12 14-28 14-40 0L12 171c-12-14-4-26 17-29Z"/>
    <path class="chalk-thin" d="M43 180h112M70 218h56"/>
    <path class="chalk-thin" d="M92 254v64"/>
    <circle class="chalk-fill" cx="92" cy="342" r="11"/>
    <text class="label small accent-text" x="2" y="96">distill</text>
  </g>

  <g transform="translate(555 123)">
    <path class="chalk" d="M44 70c65-18 196-18 260 0v286c-72 14-188 14-260 0Z"/>
    <path class="chalk-thin" d="M82 128h178M82 176h142M82 224h164M82 272h112"/>
    <path class="accent" d="M78 326h184"/>
    <text class="label small" x="70" y="430">skill.spec.yml</text>
    <text class="label tiny" x="70" y="464">a small behavior contract</text>
  </g>

  <path class="chalk-thin" d="M326 356c62-17 106-16 151 0"/>
  <path class="chalk-thin" d="M490 356l-29-18M490 356l-30 19"/>
  <path class="chalk-thin" d="M780 300c85-12 143 9 177 62"/>
  <path class="chalk-thin" d="M966 378l-34-4M966 378l-18-28"/>

  <g transform="translate(870 382)">
    <path class="chalk" d="M32 88c64-42 144-42 205 0"/>
    <path class="chalk-thin" d="M52 146h173"/>
    <path class="chalk-thin" d="M66 194h148"/>
    <path class="chalk-thin" d="M82 242h116"/>
    <circle class="accent-fill" cx="54" cy="146" r="12"/>
    <circle class="accent-fill" cx="54" cy="194" r="12"/>
    <circle class="accent-fill" cx="54" cy="242" r="12"/>
    <text class="label small" x="34" y="36">agent path</text>
    <text class="label tiny" x="86" y="153">route</text>
    <text class="label tiny" x="86" y="201">steps</text>
    <text class="label tiny" x="86" y="249">checks</text>
    <path class="accent" d="M187 284l36 30 70-88"/>
    <text class="label tiny accent-text" x="86" y="330">proof</text>
  </g>

  <g transform="translate(499 481)">
    <path class="chalk" d="M102 26c54 13 92 60 91 121-1 76-56 126-137 126-73 0-124-44-124-113 0-48 24-85 67-106 36-18 55-30 65-54 8 13 20 21 38 26Z"/>
    <circle class="board" cx="49" cy="141" r="10"/>
    <circle class="board" cx="106" cy="141" r="10"/>
    <path class="accent-fill" d="M60 26c18 0 33-9 41-26 7 19 23 28 48 30-29 9-54 9-89-4Z"/>
    <path class="chalk-thin" d="M-18 176c-46 10-75 36-87 77"/>
    <path class="chalk-thin" d="M183 174c38 21 64 55 79 102"/>
    <path class="chalk-thin" d="M38 274c-9 31-9 57 0 79"/>
    <path class="chalk-thin" d="M124 272c11 30 10 57-3 81"/>
    <path class="accent" d="M258 276l78-8"/>
    <text class="label tiny" x="-143" y="313">working memory</text>
    <text class="label tiny" x="-143" y="342">gets the next gate</text>
  </g>

  <g transform="translate(90 78)">
    <text class="label" x="0" y="0">followable</text>
  </g>
  <g transform="translate(944 108)">
    <text class="label small accent-text" x="0" y="0">testable</text>
    <text class="label small accent-text" x="0" y="42">provable</text>
  </g>
</svg>
