<svg xmlns="http://www.w3.org/2000/svg" viewBox="0 0 1040 320" role="img" aria-labelledby="title desc">
  <title id="title">SkillSpec monochrome wordmark</title>
  <desc id="desc">A mirrored S glyph paired with a restrained SkillSpec wordmark.</desc>
  <g transform="translate(42 34)">
    <rect width="252" height="252" rx="42" fill="#000"/>
    <g fill="none" stroke="#fff" stroke-width="26" stroke-linecap="round" stroke-linejoin="round">
      <path d="M104 58C75 39 43 55 45 83C48 110 90 108 91 127C92 154 50 149 45 178C40 207 76 222 106 202"/>
      <path d="M148 58C177 39 209 55 207 83C204 110 162 108 161 127C160 154 202 149 207 178C212 207 176 222 146 202"/>
    </g>
    <rect x="121" y="53" width="10" height="146" rx="5" fill="#000"/>
  </g>
  <g fill="#000" transform="translate(352 86)">
    <text x="0" y="88" font-family="Inter, ui-sans-serif, system-ui, -apple-system, BlinkMacSystemFont, 'Segoe UI', sans-serif" font-size="86" font-weight="650" letter-spacing="0">SkillSpec</text>
    <rect x="3" y="124" width="430" height="8" rx="4"/>
  </g>
</svg>
