<svg xmlns="http://www.w3.org/2000/svg" width="730" height="248" viewBox="0 0 730 248" font-family="&#39;IBM Plex Mono&#39;,ui-monospace,&#39;SFMono-Regular&#39;,Menlo,Consolas,monospace"><defs><pattern id="grid" width="26" height="26" patternUnits="userSpaceOnUse"><path d="M26 0H0V26" fill="none" stroke="#e7e7e3" stroke-width="1"></path></pattern></defs><rect width="730" height="248" fill="#f7f7f4"></rect><rect width="730" height="248" fill="url(#grid)"></rect><line x1="36" y1="30" x2="694" y2="30" stroke="#2f3545" stroke-width="2"></line><text x="36" y="24" font-family="&#39;IBM Plex Sans&#39;,&#39;Helvetica Neue&#39;,Arial,sans-serif" font-size="10" fill="#9298a4" font-weight="500">SKILLSPEC/V0 · GRAMMAR ATLAS</text><text x="694" y="24" font-family="&#39;IBM Plex Sans&#39;,&#39;Helvetica Neue&#39;,Arial,sans-serif" font-size="10" fill="#9298a4" font-weight="500" text-anchor="end">PLATE 02</text><text x="36" y="62" font-family="&#39;IBM Plex Mono&#39;,ui-monospace,&#39;SFMono-Regular&#39;,Menlo,Consolas,monospace" font-size="24" fill="#336d8c" font-weight="600">Activation</text><text x="199" y="62" font-family="&#39;IBM Plex Sans&#39;,&#39;Helvetica Neue&#39;,Arial,sans-serif" font-size="12" fill="#6a7080">Advisory harness-selection hints — never route decision.</text><rect x="36" y="74" width="658" height="4" rx="2" fill="#4a8fb0"></rect><g transform="translate(36,96)"><rect x="0" y="0" width="320" height="116" rx="3" fill="#fefefe" stroke="#dadade"></rect><path d="M0 3a3 3 0 0 1 3-3h0v116h0a3 3 0 0 1-3-3Z" fill="#4a8fb0"></path><rect x="3" y="1" width="316" height="26" fill="#e9f3f7"></rect><line x1="3" y1="27" x2="319" y2="27" stroke="#e4e4e6"></line><text x="13" y="18" font-family="&#39;IBM Plex Mono&#39;,ui-monospace,&#39;SFMono-Regular&#39;,Menlo,Consolas,monospace" font-size="13.5" fill="#336d8c" font-weight="600">activation</text><text x="308" y="17" font-family="&#39;IBM Plex Sans&#39;,&#39;Helvetica Neue&#39;,Arial,sans-serif" font-size="9" fill="#9298a4" text-anchor="end">section</text><text x="13" y="37" font-family="&#39;IBM Plex Sans&#39;,&#39;Helvetica Neue&#39;,Arial,sans-serif" font-size="11" fill="#727886">Harness-selection hint for trampoline frontmatter.</text><text x="14" y="65" font-family="&#39;IBM Plex Mono&#39;,ui-monospace,&#39;SFMono-Regular&#39;,Menlo,Consolas,monospace" font-size="8" fill="#8c91a0">●</text><text x="27" y="65" font-family="&#39;IBM Plex Mono&#39;,ui-monospace,&#39;SFMono-Regular&#39;,Menlo,Consolas,monospace" font-size="12" fill="#41485c">summary</text><text x="85.4" y="65" font-family="&#39;IBM Plex Mono&#39;,ui-monospace,&#39;SFMono-Regular&#39;,Menlo,Consolas,monospace" font-size="11" fill="#969db0">string</text><text x="14" y="83" font-family="&#39;IBM Plex Mono&#39;,ui-monospace,&#39;SFMono-Regular&#39;,Menlo,Consolas,monospace" font-size="8" fill="#8c91a0">○</text><text x="27" y="83" font-family="&#39;IBM Plex Mono&#39;,ui-monospace,&#39;SFMono-Regular&#39;,Menlo,Consolas,monospace" font-size="12" fill="#41485c">keywords</text><text x="92.6" y="83" font-family="&#39;IBM Plex Mono&#39;,ui-monospace,&#39;SFMono-Regular&#39;,Menlo,Consolas,monospace" font-size="11" fill="#969db0">seq&lt;string&gt;</text><text x="14" y="101" font-family="&#39;IBM Plex Mono&#39;,ui-monospace,&#39;SFMono-Regular&#39;,Menlo,Consolas,monospace" font-size="8" fill="#8c91a0">○</text><text x="27" y="101" font-family="&#39;IBM Plex Mono&#39;,ui-monospace,&#39;SFMono-Regular&#39;,Menlo,Consolas,monospace" font-size="12" fill="#41485c">priority</text><text x="92.6" y="101" font-family="&#39;IBM Plex Mono&#39;,ui-monospace,&#39;SFMono-Regular&#39;,Menlo,Consolas,monospace" font-size="11" fill="#969db0">string</text></g><g transform="translate(374,96)"><rect x="0" y="0" width="320" height="80" rx="3" fill="#fefefe" stroke="#dadade"></rect><path d="M0 3a3 3 0 0 1 3-3h0v80h0a3 3 0 0 1-3-3Z" fill="#4a8fb0"></path><rect x="3" y="1" width="316" height="26" fill="#e9f3f7"></rect><line x1="3" y1="27" x2="319" y2="27" stroke="#e4e4e6"></line><text x="13" y="18" font-family="&#39;IBM Plex Mono&#39;,ui-monospace,&#39;SFMono-Regular&#39;,Menlo,Consolas,monospace" font-size="13.5" fill="#336d8c" font-weight="600">applies_when</text><text x="308" y="17" font-family="&#39;IBM Plex Sans&#39;,&#39;Helvetica Neue&#39;,Arial,sans-serif" font-size="9" fill="#9298a4" text-anchor="end">section</text><text x="13" y="37" font-family="&#39;IBM Plex Sans&#39;,&#39;Helvetica Neue&#39;,Arial,sans-serif" font-size="11" fill="#727886">Advisory match hints; predicates not standardized.</text><text x="14" y="65" font-family="&#39;IBM Plex Mono&#39;,ui-monospace,&#39;SFMono-Regular&#39;,Menlo,Consolas,monospace" font-size="8" fill="#8c91a0">○</text><text x="27" y="65" font-family="&#39;IBM Plex Mono&#39;,ui-monospace,&#39;SFMono-Regular&#39;,Menlo,Consolas,monospace" font-size="12" fill="#41485c">(items)</text><text x="85.4" y="65" font-family="&#39;IBM Plex Mono&#39;,ui-monospace,&#39;SFMono-Regular&#39;,Menlo,Consolas,monospace" font-size="11" fill="#969db0">seq&lt;hint&gt;</text><text x="152.8" y="65" font-family="&#39;IBM Plex Sans&#39;,&#39;Helvetica Neue&#39;,Arial,sans-serif" font-size="10" fill="#9aa0ad" font-style="italic">each a mapping</text></g></svg>